<svg width="139" height="26" viewBox="0 0 139 26" fill="none" xmlns="http://www.w3.org/2000/svg">
<path d="M18.6387 12.1328H19.623C20.0215 12.1328 20.3965 12.168 20.748 12.2383C21.123 12.3086 21.3105 12.5664 21.3105 13.0117C21.4746 13.9492 20.9238 14.4062 19.6582 14.3828C19.3066 14.3594 18.9785 14.3359 18.6738 14.3125C18.3926 14.2891 18.1582 14.2891 17.9707 14.3125C17.7832 14.3125 17.7012 14.3711 17.7246 14.4883C17.959 15.168 18.2051 15.9297 18.4629 16.7734C18.7441 17.6172 19.0488 18.4609 19.377 19.3047C20.2207 21.3906 21.0176 22.8906 21.7676 23.8047C21.3691 24.2969 20.9004 24.707 20.3613 25.0352C19.8457 25.3633 19.5645 25.5273 19.5176 25.5273C19.4941 25.5273 19.4707 25.5156 19.4473 25.4922L14.4902 15.0508L4.89258 17.4062L4.54102 18.8828C3.86133 21.5781 3.09961 23.4531 2.25586 24.5078C2.11523 24.7422 1.82227 24.7656 1.37695 24.5781C0.626953 24.2969 0.251953 24.0625 0.251953 23.875C0.251953 23.8281 0.498047 23.1484 0.990234 21.8359C1.48242 20.5234 1.97461 19.1992 2.4668 17.8633C2.98242 16.5039 3.50977 15.0859 4.04883 13.6094C4.61133 12.1328 5.13867 10.7266 5.63086 9.39062C6.12305 8.05469 6.56836 6.85938 6.9668 5.80469C7.36523 4.72656 7.64648 3.95313 7.81055 3.48438C7.97461 2.99219 8.08008 2.57031 8.12695 2.21875C8.19727 1.84375 8.29102 1.52734 8.4082 1.26953C8.64258 0.730469 9.22852 0.460938 10.166 0.460938C11.1738 1.02344 11.9473 1.76172 12.4863 2.67578C13.0488 3.56641 13.5176 4.52734 13.8926 5.55859C14.291 6.58984 14.6777 7.63281 15.0527 8.6875C15.4277 9.74219 15.9316 10.7031 16.5645 11.5703C16.7754 11.8984 17.0918 12.0742 17.5137 12.0977C17.9355 12.1211 18.3105 12.1328 18.6387 12.1328ZM9.84961 4.53906C9.66211 5.96875 9.24023 7.43359 8.58398 8.93359C7.92773 10.4336 7.40039 11.6055 7.00195 12.4492C6.60352 13.2695 6.26367 14.0312 5.98242 14.7344C7.57617 14.7344 9.5332 14.2656 11.8535 13.3281C12.4395 13.0703 13.002 12.8359 13.541 12.625C12.4395 7.91406 11.209 5.21875 9.84961 4.53906ZM26.2676 24.4375C25.3066 24.8359 24.6621 25.0352 24.334 25.0352C24.0293 25.0352 23.8184 25 23.7012 24.9297C23.584 24.8594 23.4551 24.6953 23.3145 24.4375C23.3145 23.6641 23.3379 22.6914 23.3848 21.5195C23.4551 20.3477 23.5137 19.0938 23.5605 17.7578C23.6074 16.4219 23.6309 15.0742 23.6309 13.7148C23.6309 12.3555 23.5605 11.1133 23.4199 9.98828C23.4199 9.23828 23.9238 8.86328 24.9316 8.86328C25.166 8.86328 25.3418 9.28516 25.459 10.1289C25.5996 10.9727 25.6934 11.6289 25.7402 12.0977C25.8105 12.5664 25.8691 12.9062 25.916 13.1172C26.5254 12.0156 27.7324 11.1484 29.5371 10.5156C30.498 10.2109 31.4004 10.0586 32.2441 10.0586C33.0879 10.0586 33.8262 10.1641 34.459 10.375C35.1152 10.5625 35.666 10.9258 36.1113 11.4648C36.5801 11.9805 36.8145 12.6719 36.8145 13.5391C37.4238 12.3906 38.7949 11.3594 40.9277 10.4453C42.873 9.57812 44.6191 9.14453 46.166 9.14453C48.3926 9.14453 49.4824 9.98828 49.4355 11.6758L50.1738 24.7539C50.1738 24.8711 49.834 24.9531 49.1543 25C47.8418 25.0938 47.1855 24.9766 47.1855 24.6484C47.1621 24.1797 47.1504 23.7109 47.1504 23.2422L47.3262 17.582C47.3262 14.9336 47.0684 12.8359 46.5527 11.2891C45.0059 11.4062 43.8105 11.6641 42.9668 12.0625C42.1465 12.4375 41.4199 12.918 40.7871 13.5039C40.1543 14.0664 39.5918 14.8281 39.0996 15.7891C37.998 17.9453 37.4473 20.8047 37.4473 24.3672C37.3066 24.8594 36.8496 25.1055 36.0762 25.1055C35.5605 25.1055 35.1387 25.0234 34.8105 24.8594C34.4824 24.6719 34.3535 24.5078 34.4238 24.3672C34.8691 21.8828 35.0918 19.9492 35.0918 18.5664C35.0918 17.4648 34.9746 16.4219 34.7402 15.4375C34.5293 14.4297 34.2598 13.2812 33.9316 11.9922C30.5566 11.9922 28.2832 13.3398 27.1113 16.0352C26.5957 17.2305 26.3027 18.3555 26.2324 19.4102C26.1855 20.4414 26.1621 21.332 26.1621 22.082C26.1621 22.8086 26.1973 23.5938 26.2676 24.4375ZM58.541 22.5391C60.6035 22.5391 63.709 21.6016 67.8574 19.7266C68.1152 19.7266 68.3262 19.8203 68.4902 20.0078C68.6543 20.1719 68.7363 20.3711 68.7363 20.6055C67.7988 22.1992 66.0059 23.4414 63.3574 24.332C60.709 25.2227 58.2363 25.375 55.9395 24.7891C53.3379 24.1094 51.7559 22.6445 51.1934 20.3945C51.1465 19.9492 51.123 19.3516 51.123 18.6016C51.123 17.8516 51.3105 16.8672 51.6855 15.6484C52.084 14.4062 52.752 13.2344 53.6895 12.1328C54.627 11.0312 55.7285 10.1641 56.9941 9.53125C58.2598 8.89844 59.6074 8.58203 61.0371 8.58203C62.3965 8.58203 63.9199 9.05078 65.6074 9.98828C66.4043 10.4336 67.0371 10.9375 67.5059 11.5C67.9746 12.0625 68.209 12.6367 68.209 13.2227C68.209 13.3867 68.1973 13.5508 68.1738 13.7148C68.127 15.1445 67.4355 16.0469 66.0996 16.4219C65.5137 16.5859 64.834 16.668 64.0605 16.668L58.998 16.457C57.3105 16.457 56.0215 16.8203 55.1309 17.5469C54.6152 17.9453 54.252 18.543 54.041 19.3398C54.627 21.4727 56.127 22.5391 58.541 22.5391ZM64.7988 11.6758C64.2832 11.3008 63.7441 11.0312 63.1816 10.8672C62.6191 10.7031 62.1504 10.6211 61.7754 10.6211C61.4004 10.6211 60.791 10.75 59.9473 11.0078C59.1035 11.2422 58.3535 11.5117 57.6973 11.8164C56.0801 12.5664 55.2715 13.3516 55.2715 14.1719C57.1465 14.3359 58.5527 14.418 59.4902 14.418C62.0918 14.418 63.8496 14.1953 64.7637 13.75C65.3262 13.5156 65.6074 13.2227 65.6074 12.8711C65.6074 12.4492 65.3379 12.0508 64.7988 11.6758ZM71.4785 11.3594C71.4316 10.0938 71.3848 8.96875 71.3379 7.98438C71.291 6.97656 71.2559 6.23828 71.2324 5.76953C71.2324 5.27734 71.0449 4.09375 70.6699 2.21875C70.8809 1.9375 71.0801 1.66797 71.2676 1.41016C71.4785 1.15234 71.7715 1.02344 72.1465 1.02344C72.9668 1.02344 73.5996 4.48047 74.0449 11.3945C74.2793 15.4023 74.3965 19.4102 74.3965 23.418C74.3965 24.4961 73.6465 25.0352 72.1465 25.0352L71.8652 25C71.8652 23.7812 71.8301 22.2227 71.7598 20.3242C71.6895 18.4258 71.6309 16.7734 71.584 15.3672C71.5605 13.9609 71.5254 12.625 71.4785 11.3594ZM79.6699 8.47656C79.9746 12.8594 80.2324 17.9336 80.4434 23.6992C80.3027 24.4258 79.7402 24.7891 78.7559 24.7891C78.498 24.7891 78.2285 24.7422 77.9473 24.6484C77.6895 24.5312 77.5254 24.3789 77.4551 24.1914V8.47656H79.6699ZM76.4004 3.69531C76.4004 2.875 76.8809 2.46484 77.8418 2.46484C78.4746 2.46484 78.9902 2.60547 79.3887 2.88672C79.459 3.14453 79.4941 3.40234 79.4941 3.66016C79.4941 3.89453 79.4004 4.12891 79.2129 4.36328C79.0254 4.59766 78.7441 4.71484 78.3691 4.71484C77.9941 4.71484 77.6191 4.63281 77.2441 4.46875C76.8691 4.28125 76.5879 4.02344 76.4004 3.69531ZM95.7715 19.1641C94.0137 21.9297 91.6699 23.6406 88.7402 24.2969C88.0605 24.4375 87.4395 24.5078 86.877 24.5078C86.3379 24.5078 85.8809 24.5078 85.5059 24.5078C85.1543 24.4844 84.7559 24.4258 84.3105 24.332C83.8652 24.2383 83.4551 24.0859 83.0801 23.875C82.2129 23.3828 81.7793 22.6914 81.7793 21.8008C81.6855 21.3789 81.6387 20.9102 81.6387 20.3945C81.6387 19.8555 81.7559 19.1523 81.9902 18.2852C82.2246 17.418 82.6465 16.4805 83.2559 15.4727C83.8887 14.4648 84.6504 13.5391 85.541 12.6953C87.3926 10.9141 89.3965 9.76562 91.5527 9.25C92.1855 9.10938 92.7598 9.03906 93.2754 9.03906C93.8145 9.03906 94.2949 9.07422 94.7168 9.14453C96.0762 9.14453 96.9902 10.0703 97.459 11.9219C97.7637 13.0938 97.9395 14.7344 97.9863 16.8438C98.0566 18.9297 98.1152 20.5469 98.1621 21.6953C98.2324 22.8203 98.3848 23.8516 98.6191 24.7891H96.5449C96.4512 24.1562 96.3809 23.5938 96.334 23.1016C96.2871 22.6094 96.2402 22.1523 96.1934 21.7305C96.0762 20.7461 95.9355 19.8906 95.7715 19.1641ZM95.6309 13.7148C95.6309 12.3555 94.9629 11.6758 93.627 11.6758C93.4629 11.6523 93.2988 11.6406 93.1348 11.6406C91.4238 11.6406 89.6191 12.4609 87.7207 14.1016C86.8301 14.8516 86.0684 15.6953 85.4355 16.6328C84.498 17.9688 84.0293 19.1641 84.0293 20.2188C84.0293 21.6016 84.8262 22.4219 86.4199 22.6797C88.5293 22.6328 90.5449 21.6719 92.4668 19.7969C93.2871 18.9766 93.9668 18.0859 94.5059 17.125C95.2559 15.8359 95.6309 14.6992 95.6309 13.7148ZM117.041 19.1641C115.729 18.9766 115.072 18.6719 115.072 18.25C115.072 17.9453 115.295 17.5938 115.74 17.1953C116.186 16.7969 116.631 16.3867 117.076 15.9648C117.076 14.5586 116.865 12.9883 116.443 11.2539C116.021 9.49609 115.717 8.13672 115.529 7.17578C115.342 6.21484 115.248 5.33594 115.248 4.53906C115.248 3.74219 115.365 3.23828 115.6 3.02734C115.857 2.81641 116.221 2.71094 116.689 2.71094C117.158 2.71094 117.463 2.78125 117.604 2.92188C117.744 3.03906 117.838 3.19141 117.885 3.37891C117.932 3.56641 117.955 3.76562 117.955 3.97656C117.979 4.1875 118.025 4.38672 118.096 4.57422C118.213 5.01953 118.576 5.24219 119.186 5.24219C120.756 5.21875 122.326 5.08984 123.896 4.85547C125.467 4.59766 127.025 4.33984 128.572 4.08203C131.666 3.56641 133.834 3.30859 135.076 3.30859C136.342 3.30859 137.338 3.34375 138.064 3.41406C138.088 3.85937 138.135 4.24609 138.205 4.57422C138.275 4.90234 138.311 5.17188 138.311 5.38281C138.311 5.78125 137.924 5.92188 137.15 5.80469C124.893 6.25 118.764 7.16406 118.764 8.54688C118.764 10.0703 118.869 11.3828 119.08 12.4844C119.291 13.5625 119.443 14.2422 119.537 14.5234C119.654 14.8047 119.783 14.9453 119.924 14.9453C121.26 14.9453 122.607 14.8281 123.967 14.5938C125.35 14.3594 126.721 14.1133 128.08 13.8555C129.463 13.5742 130.846 13.3164 132.229 13.082C133.611 12.8477 134.971 12.7305 136.307 12.7305C136.33 12.7305 136.342 12.8242 136.342 13.0117C136.342 13.1758 136.33 13.3633 136.307 13.5742C136.236 14.1367 136.236 14.418 136.307 14.418C135.299 14.9805 133.471 15.4375 130.822 15.7891C129.674 15.9531 128.502 16.1055 127.307 16.2461C126.111 16.3867 125.01 16.5391 124.002 16.7031C121.682 17.0312 120.334 17.4648 119.959 18.0039L119.572 24.8945C119.314 25.1523 119.021 25.2812 118.693 25.2812L117.393 25.1758C117.275 25.1758 117.158 25.1758 117.041 25.1758V19.1641Z" fill="#161616"/>
</svg>
